M48
; DRILL file {KiCad 7.0.5-0} date 2023 November 25, Saturday 09:03:24
; FORMAT={-:-/ absolute / inch / decimal}
; #@! TF.CreationDate,2023-11-25T09:03:24+00:00
; #@! TF.GenerationSoftware,Kicad,Pcbnew,7.0.5-0
; #@! TF.FileFunction,Plated,1,2,PTH
FMAT,2
INCH
; #@! TA.AperFunction,Plated,PTH,ComponentDrill
T1C0.0300
; #@! TA.AperFunction,Plated,PTH,ComponentDrill
T2C0.0315
; #@! TA.AperFunction,Plated,PTH,ComponentDrill
T3C0.0394
; #@! TA.AperFunction,Plated,PTH,ComponentDrill
T4C0.0402
%
G90
G05
T1
X3.595Y-4.51
X3.795Y-4.51
T2
X3.5751Y-3.2677
X3.5751Y-3.3677
X3.8751Y-3.2677
X3.8751Y-3.3677
T3
X3.5955Y-3.9833
X3.6955Y-3.9833
X3.7955Y-3.9833
X5.9325Y-2.8654
X5.9325Y-2.9654
X5.9325Y-3.0654
X5.9325Y-3.1654
X5.9325Y-3.2654
X5.9325Y-3.3654
X5.9325Y-3.4654
X5.9325Y-3.5654
X5.9325Y-3.6654
X5.9325Y-3.7654
X5.9325Y-3.8654
X5.9325Y-3.9654
X5.9325Y-4.0654
X5.9325Y-4.1654
X5.9325Y-4.2654
X5.9325Y-4.3654
X5.9325Y-4.4654
X5.9325Y-4.5654
X5.9325Y-4.6654
X5.9325Y-4.7654
X6.0325Y-2.8654
X6.0325Y-2.9654
X6.0325Y-3.0654
X6.0325Y-3.1654
X6.0325Y-3.2654
X6.0325Y-3.3654
X6.0325Y-3.4654
X6.0325Y-3.5654
X6.0325Y-3.6654
X6.0325Y-3.7654
X6.0325Y-3.8654
X6.0325Y-3.9654
X6.0325Y-4.0654
X6.0325Y-4.1654
X6.0325Y-4.2654
X6.0325Y-4.3654
X6.0325Y-4.4654
X6.0325Y-4.5654
X6.0325Y-4.6654
X6.0325Y-4.7654
T4
X2.3906Y-2.8724
X2.3906Y-2.9724
X2.3906Y-3.0724
X2.3906Y-3.1724
X2.3906Y-3.2724
X2.3906Y-3.3724
X2.3906Y-3.4724
X2.3906Y-3.5724
X2.3906Y-3.6724
X2.3906Y-3.7724
X2.3906Y-3.8724
X2.3906Y-3.9724
X2.3906Y-4.0724
X2.3906Y-4.1724
X2.3906Y-4.2724
X2.3906Y-4.3724
X2.3906Y-4.4724
X2.3906Y-4.5724
X2.3906Y-4.6724
X2.3906Y-4.7724
X2.6406Y-4.7634
X2.7406Y-4.7634
X2.8406Y-4.7634
X3.0906Y-2.8724
X3.0906Y-2.9724
X3.0906Y-3.0724
X3.0906Y-3.1724
X3.0906Y-3.2724
X3.0906Y-3.3724
X3.0906Y-3.4724
X3.0906Y-3.5724
X3.0906Y-3.6724
X3.0906Y-3.7724
X3.0906Y-3.8724
X3.0906Y-3.9724
X3.0906Y-4.0724
X3.0906Y-4.1724
X3.0906Y-4.2724
X3.0906Y-4.3724
X3.0906Y-4.4724
X3.0906Y-4.5724
X3.0906Y-4.6724
X3.0906Y-4.7724
X4.2933Y-2.8726
X4.2933Y-2.9726
X4.2933Y-3.0726
X4.2933Y-3.1726
X4.2933Y-3.2726
X4.2933Y-3.3726
X4.2933Y-3.4726
X4.2933Y-3.5726
X4.2933Y-3.6726
X4.2933Y-3.7726
X4.2933Y-3.8726
X4.2933Y-3.9726
X4.2933Y-4.0726
X4.2933Y-4.1726
X4.2933Y-4.2726
X4.2933Y-4.3726
X4.2933Y-4.4726
X4.2933Y-4.5726
X4.2933Y-4.6726
X4.2933Y-4.7726
X4.6663Y-4.047
X4.7663Y-4.047
X4.8663Y-4.047
X4.9933Y-2.8726
X4.9933Y-2.9726
X4.9933Y-3.0726
X4.9933Y-3.1726
X4.9933Y-3.2726
X4.9933Y-3.3726
X4.9933Y-3.4726
X4.9933Y-3.5726
X4.9933Y-3.6726
X4.9933Y-3.7726
X4.9933Y-3.8726
X4.9933Y-3.9726
X4.9933Y-4.0726
X4.9933Y-4.1726
X4.9933Y-4.2726
X4.9933Y-4.3726
X4.9933Y-4.4726
X4.9933Y-4.5726
X4.9933Y-4.6726
X4.9933Y-4.7726
T0
M30
